SplineFontDB: 3.0
FontName: NicholasKis
FullName: Nicholas Kis
FamilyName: Nicholas Kis
Weight: Regular
Copyright: Created by trashman with FontForge 2.0 (http://fontforge.sf.net)
UComments: "Cut 3200-dpi samples to 640 pixels high. Scale by a factor of 1.3." 
Version: 001.000
ItalicAngle: 0
UnderlinePosition: -100
UnderlineWidth: 49
Ascent: 800
Descent: 200
LayerCount: 3
Layer: 0 0 "Back"  1
Layer: 1 0 "Fore"  0
Layer: 2 0 "backup"  0
NeedsXUIDChange: 1
XUID: [1021 658 797806517 2478896]
FSType: 0
OS2Version: 0
OS2_WeightWidthSlopeOnly: 0
OS2_UseTypoMetrics: 1
CreationTime: 1263111985
ModificationTime: 1263179660
OS2TypoAscent: 0
OS2TypoAOffset: 1
OS2TypoDescent: 0
OS2TypoDOffset: 1
OS2TypoLinegap: 90
OS2WinAscent: 0
OS2WinAOffset: 1
OS2WinDescent: 0
OS2WinDOffset: 1
HheadAscent: 0
HheadAOffset: 1
HheadDescent: 0
HheadDOffset: 1
MarkAttachClasses: 1
DEI: 91125
LangName: 1033 
Encoding: UnicodeBmp
UnicodeInterp: none
NameList: Adobe Glyph List
DisplaySize: -72
AntiAlias: 1
FitToEm: 1
WinInfo: 56 8 6
BeginChars: 65536 53

StartChar: a
Encoding: 97 97 0
Width: 479
VWidth: 0
Flags: HWO
HStem: -10.4 49.4<148.389 237.884> -6.5 66.3<330.85 422.535> 300.3 27.3G<68.9 94.9> 438.1 50.7<158.822 268.935>
VStem: 33.8 91<304.742 402.695> 40.3 94.9<47.5313 150.7> 286 88.4<62.4302 215.797 244.559 423.713>
LayerCount: 3
Fore
SplineSet
419 20 m 0
 397 5 370 -6 352 -6 c 0x7a
 309 -6 294 38 289 44 c 1
 289 44 216 -10 152 -10 c 0
 88 -10 40 30 40 87 c 0xb6
 40 161 133 197 212 228 c 0
 277 254 290 249 290 272 c 0
 290 394 284 440 207 440 c 0
 197 440 155 434 134 417 c 0
 128 412 125 406 125 394 c 0
 125 385 129 368 129 352 c 0
 129 330 110 300 79 300 c 0
 58 300 34 320 34 350 c 0
 34 424 191 489 266 489 c 0
 326 489 374 448 374 388 c 2
 374 130 l 2
 374 77 390 60 407 60 c 0
 416 60 421 65 424 70 c 0
 428 77 433 84 438 84 c 0
 441 84 453 80 453 70 c 0
 453 60 445 39 419 20 c 0
186 179 m 0
 161 167 135 140 135 108 c 0
 135 74 155 39 190 39 c 0xb6
 233 39 286 79 286 87 c 2
 286 202 l 2
 286 212 286 216 282 216 c 0
 262 216 196 184 186 179 c 0
EndSplineSet
Layer: 2
SplineSet
439.400390625 84.5 m 4x7a
 447.200195312 84.5 452.400390625 79.2998046875 452.400390625 68.900390625 c 4
 452.400390625 26 379.599609375 -6.5 352.299804688 -6.5 c 4x7a
 309.400390625 -6.5 293.799804688 37.7001953125 288.599609375 44.2001953125 c 5
 288.599609375 44.2001953125 215.799804688 -10.400390625 152.099609375 -10.400390625 c 4
 88.400390625 -10.400390625 40.2998046875 29.900390625 40.2998046875 87.099609375 c 4xb6
 40.2998046875 161.200195312 132.599609375 196.299804688 211.900390625 227.5 c 4
 276.900390625 253.5 289.900390625 248.299804688 289.900390625 271.700195312 c 4
 289.900390625 393.900390625 280.799804688 438.099609375 206.700195312 438.099609375 c 4
 196.299804688 438.099609375 154.700195312 434.200195312 133.900390625 417.299804688 c 4
 127.400390625 412.099609375 124.799804688 405.599609375 124.799804688 393.900390625 c 4
 124.799804688 384.799804688 128.700195312 367.900390625 128.700195312 352.299804688 c 4
 128.700195312 330.200195312 110.5 300.299804688 79.2998046875 300.299804688 c 4
 58.5 300.299804688 33.7998046875 319.799804688 33.7998046875 349.700195312 c 4
 33.7998046875 423.799804688 191.099609375 488.799804688 266.5 488.799804688 c 4
 326.299804688 488.799804688 374.400390625 449.799804688 374.400390625 390 c 6
 374.400390625 130 l 6
 374.400390625 76.7001953125 390 59.7998046875 406.900390625 59.7998046875 c 4
 425.099609375 59.7998046875 425.099609375 84.5 439.400390625 84.5 c 4x7a
185.900390625 179.400390625 m 4
 161.200195312 167.700195312 135.200195312 140.400390625 135.200195312 107.900390625 c 4
 135.200195312 74.099609375 154.700195312 39 189.799804688 39 c 4xb6
 232.700195312 39 286 79.2998046875 286 87.099609375 c 6
 286 201.5 l 6
 286 211.900390625 286 215.799804688 282.099609375 215.799804688 c 4
 262.599609375 215.799804688 196.299804688 184.599609375 185.900390625 179.400390625 c 4
EndSplineSet
EndChar

StartChar: M
Encoding: 77 77 1
Width: 1058
VWidth: 0
Flags: HW
HStem: -3.9 42.9<40.3228 101.703 155.36 226.538 719.794 826.506 947.748 1034.08> 734.5 41.6<97.6781 191.912 924.965 1013.99>
VStem: 40.3 111.8<13 92.95> 830.7 106.6<69.0044 441.249>
LayerCount: 3
Fore
SplineSet
237 642 m 0
 232 642 224 592 202 460 c 0
 175 303 152 97 152 77 c 0
 152 50 162 44 175 40 c 0
 220 26 228 28 228 12 c 0
 228 3 224 -4 211 -4 c 0
 195 -4 151 3 129 3 c 0
 87 3 75 0 62 0 c 0
 48 0 41 9 41 17 c 0
 41 34 47 32 72 38 c 0
 88 42 104 48 108 75 c 2
 187 607 l 2
 199 685 200 686 200 692 c 0
 200 702 191 728 161 732 c 0
 114 737 98 733 98 756 c 0
 98 774 108 779 119 779 c 0
 129 779 161 775 202 775 c 0
 223 775 247 775 289 774 c 0
 309 774 317 767 325 745 c 2
 463 361 l 2
 502 254 536 164 541 164 c 0
 544 164 572 230 609 312 c 2
 764 655 l 1
 812 763 l 2
 816 771 830 771 840 771 c 2
 910 771 l 2
 948 771 984 776 996 776 c 0
 1004 776 1014 775 1014 758 c 0
 1014 744 1014 736 987 734 c 0
 932 730 919 731 919 675 c 0
 919 561 937 168 937 168 c 2
 938 132 943 98 946 68 c 0
 947 55 954 37 976 32 c 0
 1012 23 1036 33 1036 8 c 0
 1036 -2 1023 -4 1015 -4 c 0
 988 -4 935 1 880 1 c 0
 848 1 772 -5 736 -5 c 0
 722 -5 719 3 719 9 c 0
 719 35 732 24 802 34 c 0
 828 38 831 65 831 129 c 0
 831 151 819 652 807 652 c 0
 802 652 761 562 718 470 c 2
 608 235 l 1
 512 17 l 2
 508 7 503 4 495 4 c 2
 491 4 l 2
 478 4 469 25 457 61 c 0
 448 88 252 642 237 642 c 0
EndSplineSet
Layer: 2
SplineSet
239.200195312 639.599609375 m 0
 219.700195312 639.599609375 152.099609375 109.200195312 152.099609375 76.7001953125 c 0
 152.099609375 50.7001953125 169 45.5 185.900390625 39 c 0
 214.5 27.2998046875 227.5 27.2998046875 227.5 11.7001953125 c 0
 227.5 2.599609375 223.599609375 -3.900390625 210.599609375 -3.900390625 c 0
 195 -3.900390625 150.799804688 2.599609375 128.700195312 2.599609375 c 0
 87.099609375 2.599609375 75.400390625 0 62.400390625 0 c 0
 48.099609375 0 40.2998046875 9.099609375 40.2998046875 16.900390625 c 0
 40.2998046875 28.599609375 46.7998046875 32.5 57.2001953125 35.099609375 c 0
 76.7001953125 40.2998046875 104 49.400390625 107.900390625 75.400390625 c 2
 187.200195312 607.099609375 l 2
 198.900390625 685.099609375 200.200195312 685.099609375 200.200195312 691.599609375 c 0
 200.200195312 702 191.099609375 728 161.200195312 731.900390625 c 0
 124.799804688 735.799804688 97.5 733.200195312 97.5 751.400390625 c 0
 97.5 778.700195312 111.799804688 780 127.400390625 780 c 0
 149.5 780 185.900390625 776.099609375 215.799804688 776.099609375 c 2
 288.599609375 776.099609375 l 2
 308.099609375 776.099609375 317.200195312 767 325 744.900390625 c 2
 462.799804688 361.400390625 l 2
 501.799804688 254.799804688 535.599609375 167.700195312 540.799804688 167.700195312 c 0
 543.400390625 167.700195312 572 230.099609375 608.400390625 312 c 2
 812.5 763.099609375 l 2
 816.400390625 770.900390625 829.400390625 772.200195312 839.799804688 772.200195312 c 0
 859.299804688 772.200195312 897 770.900390625 910 770.900390625 c 0
 947.700195312 770.900390625 984.099609375 776.099609375 995.799804688 776.099609375 c 0
 1003.59960938 776.099609375 1014 774.799804688 1014 757.900390625 c 0
 1014 743.599609375 1015.29980469 735.799804688 989.299804688 734.5 c 0
 934.700195312 730.599609375 919.099609375 730.599609375 919.099609375 674.700195312 c 0
 919.099609375 560.299804688 937.299804688 167.700195312 937.299804688 167.700195312 c 2
 938.599609375 131.299804688 943.799804688 97.5 946.400390625 67.599609375 c 0
 947.700195312 54.599609375 954.200195312 37.7001953125 976.299804688 32.5 c 0
 1012.70019531 23.400390625 1036.09960938 32.5 1036.09960938 7.7998046875 c 0
 1036.09960938 -2.599609375 1023.09960938 -3.900390625 1015.29980469 -3.900390625 c 0
 988 -3.900390625 934.700195312 1.2998046875 880.099609375 1.2998046875 c 0
 847.599609375 1.2998046875 772.200195312 -5.2001953125 735.799804688 -5.2001953125 c 0
 721.5 -5.2001953125 718.900390625 2.599609375 718.900390625 9.099609375 c 0
 718.900390625 35.099609375 731.900390625 23.400390625 802.099609375 33.7998046875 c 0
 828.099609375 37.7001953125 830.700195312 65 830.700195312 128.700195312 c 0
 830.700195312 150.799804688 819 643.5 807.299804688 643.5 c 0
 795.599609375 643.5 761.799804688 560.299804688 718.900390625 468 c 0
 644.799804688 308.099609375 559 122.200195312 513.5 16.900390625 c 0
 509.599609375 6.5 503.099609375 3.900390625 495.299804688 3.900390625 c 2
 491.400390625 3.900390625 l 2
 478.400390625 3.900390625 468 24.7001953125 456.299804688 61.099609375 c 0
 434.200195312 127.400390625 392.599609375 244.400390625 352.299804688 353.599609375 c 0
 299 495.299804688 248.299804688 639.599609375 239.200195312 639.599609375 c 0
EndSplineSet
EndChar

StartChar: b
Encoding: 98 98 2
Width: 232
VWidth: 0
Flags: W
HStem: 146 80<80.393 151.607>
VStem: 76 80<150.393 221.607>
LayerCount: 3
Fore
SplineSet
76 186 m 0
 76 208 94 226 116 226 c 0
 138 226 156 208 156 186 c 0
 156 164 138 146 116 146 c 0
 94 146 76 164 76 186 c 0
EndSplineSet
Validated: 1
EndChar

StartChar: c
Encoding: 99 99 3
Width: 232
VWidth: 0
Flags: W
HStem: 146 80<80.393 151.607>
VStem: 76 80<150.393 221.607>
LayerCount: 3
Fore
SplineSet
76 186 m 4
 76 208 94 226 116 226 c 4
 138 226 156 208 156 186 c 4
 156 164 138 146 116 146 c 4
 94 146 76 164 76 186 c 4
EndSplineSet
Validated: 1
EndChar

StartChar: d
Encoding: 100 100 4
Width: 232
VWidth: 0
Flags: W
HStem: 146 80<80.393 151.607>
VStem: 76 80<150.393 221.607>
LayerCount: 3
Fore
SplineSet
76 186 m 4
 76 208 94 226 116 226 c 4
 138 226 156 208 156 186 c 4
 156 164 138 146 116 146 c 4
 94 146 76 164 76 186 c 4
EndSplineSet
Validated: 1
EndChar

StartChar: e
Encoding: 101 101 5
Width: 232
VWidth: 0
Flags: W
HStem: 146 80<80.393 151.607>
VStem: 76 80<150.393 221.607>
LayerCount: 3
Fore
SplineSet
76 186 m 4
 76 208 94 226 116 226 c 4
 138 226 156 208 156 186 c 4
 156 164 138 146 116 146 c 4
 94 146 76 164 76 186 c 4
EndSplineSet
Validated: 1
EndChar

StartChar: f
Encoding: 102 102 6
Width: 232
VWidth: 0
Flags: W
HStem: 146 80<80.393 151.607>
VStem: 76 80<150.393 221.607>
LayerCount: 3
Fore
SplineSet
76 186 m 4
 76 208 94 226 116 226 c 4
 138 226 156 208 156 186 c 4
 156 164 138 146 116 146 c 4
 94 146 76 164 76 186 c 4
EndSplineSet
Validated: 1
EndChar

StartChar: g
Encoding: 103 103 7
Width: 232
VWidth: 0
Flags: W
HStem: 146 80<80.393 151.607>
VStem: 76 80<150.393 221.607>
LayerCount: 3
Fore
SplineSet
76 186 m 4
 76 208 94 226 116 226 c 4
 138 226 156 208 156 186 c 4
 156 164 138 146 116 146 c 4
 94 146 76 164 76 186 c 4
EndSplineSet
Validated: 1
EndChar

StartChar: h
Encoding: 104 104 8
Width: 232
VWidth: 0
Flags: W
HStem: 146 80<80.393 151.607>
VStem: 76 80<150.393 221.607>
LayerCount: 3
Fore
SplineSet
76 186 m 4
 76 208 94 226 116 226 c 4
 138 226 156 208 156 186 c 4
 156 164 138 146 116 146 c 4
 94 146 76 164 76 186 c 4
EndSplineSet
Validated: 1
EndChar

StartChar: i
Encoding: 105 105 9
Width: 232
VWidth: 0
Flags: W
HStem: 146 80<80.393 151.607>
VStem: 76 80<150.393 221.607>
LayerCount: 3
Fore
SplineSet
76 186 m 4
 76 208 94 226 116 226 c 4
 138 226 156 208 156 186 c 4
 156 164 138 146 116 146 c 4
 94 146 76 164 76 186 c 4
EndSplineSet
Validated: 1
EndChar

StartChar: j
Encoding: 106 106 10
Width: 232
VWidth: 0
Flags: W
HStem: 146 80<80.393 151.607>
VStem: 76 80<150.393 221.607>
LayerCount: 3
Fore
SplineSet
76 186 m 4
 76 208 94 226 116 226 c 4
 138 226 156 208 156 186 c 4
 156 164 138 146 116 146 c 4
 94 146 76 164 76 186 c 4
EndSplineSet
Validated: 1
EndChar

StartChar: k
Encoding: 107 107 11
Width: 232
VWidth: 0
Flags: W
HStem: 146 80<80.393 151.607>
VStem: 76 80<150.393 221.607>
LayerCount: 3
Fore
SplineSet
76 186 m 4
 76 208 94 226 116 226 c 4
 138 226 156 208 156 186 c 4
 156 164 138 146 116 146 c 4
 94 146 76 164 76 186 c 4
EndSplineSet
Validated: 1
EndChar

StartChar: l
Encoding: 108 108 12
Width: 232
VWidth: 0
Flags: W
HStem: 146 80<80.393 151.607>
VStem: 76 80<150.393 221.607>
LayerCount: 3
Fore
SplineSet
76 186 m 4
 76 208 94 226 116 226 c 4
 138 226 156 208 156 186 c 4
 156 164 138 146 116 146 c 4
 94 146 76 164 76 186 c 4
EndSplineSet
Validated: 1
EndChar

StartChar: m
Encoding: 109 109 13
Width: 232
VWidth: 0
Flags: W
HStem: 146 80<80.393 151.607>
VStem: 76 80<150.393 221.607>
LayerCount: 3
Fore
SplineSet
76 186 m 4
 76 208 94 226 116 226 c 4
 138 226 156 208 156 186 c 4
 156 164 138 146 116 146 c 4
 94 146 76 164 76 186 c 4
EndSplineSet
Validated: 1
EndChar

StartChar: n
Encoding: 110 110 14
Width: 232
VWidth: 0
Flags: W
HStem: 146 80<80.393 151.607>
VStem: 76 80<150.393 221.607>
LayerCount: 3
Fore
SplineSet
76 186 m 4
 76 208 94 226 116 226 c 4
 138 226 156 208 156 186 c 4
 156 164 138 146 116 146 c 4
 94 146 76 164 76 186 c 4
EndSplineSet
Validated: 1
EndChar

StartChar: o
Encoding: 111 111 15
Width: 232
VWidth: 0
Flags: W
HStem: 146 80<80.393 151.607>
VStem: 76 80<150.393 221.607>
LayerCount: 3
Fore
SplineSet
76 186 m 4
 76 208 94 226 116 226 c 4
 138 226 156 208 156 186 c 4
 156 164 138 146 116 146 c 4
 94 146 76 164 76 186 c 4
EndSplineSet
Validated: 1
EndChar

StartChar: p
Encoding: 112 112 16
Width: 232
VWidth: 0
Flags: W
HStem: 146 80<80.393 151.607>
VStem: 76 80<150.393 221.607>
LayerCount: 3
Fore
SplineSet
76 186 m 4
 76 208 94 226 116 226 c 4
 138 226 156 208 156 186 c 4
 156 164 138 146 116 146 c 4
 94 146 76 164 76 186 c 4
EndSplineSet
Validated: 1
EndChar

StartChar: q
Encoding: 113 113 17
Width: 232
VWidth: 0
Flags: W
HStem: 146 80<80.393 151.607>
VStem: 76 80<150.393 221.607>
LayerCount: 3
Fore
SplineSet
76 186 m 4
 76 208 94 226 116 226 c 4
 138 226 156 208 156 186 c 4
 156 164 138 146 116 146 c 4
 94 146 76 164 76 186 c 4
EndSplineSet
Validated: 1
EndChar

StartChar: r
Encoding: 114 114 18
Width: 232
VWidth: 0
Flags: W
HStem: 146 80<80.393 151.607>
VStem: 76 80<150.393 221.607>
LayerCount: 3
Fore
SplineSet
76 186 m 4
 76 208 94 226 116 226 c 4
 138 226 156 208 156 186 c 4
 156 164 138 146 116 146 c 4
 94 146 76 164 76 186 c 4
EndSplineSet
Validated: 1
EndChar

StartChar: s
Encoding: 115 115 19
Width: 232
VWidth: 0
Flags: W
HStem: 146 80<80.393 151.607>
VStem: 76 80<150.393 221.607>
LayerCount: 3
Fore
SplineSet
76 186 m 4
 76 208 94 226 116 226 c 4
 138 226 156 208 156 186 c 4
 156 164 138 146 116 146 c 4
 94 146 76 164 76 186 c 4
EndSplineSet
Validated: 1
EndChar

StartChar: t
Encoding: 116 116 20
Width: 232
VWidth: 0
Flags: W
HStem: 146 80<80.393 151.607>
VStem: 76 80<150.393 221.607>
LayerCount: 3
Fore
SplineSet
76 186 m 4
 76 208 94 226 116 226 c 4
 138 226 156 208 156 186 c 4
 156 164 138 146 116 146 c 4
 94 146 76 164 76 186 c 4
EndSplineSet
Validated: 1
EndChar

StartChar: u
Encoding: 117 117 21
Width: 232
VWidth: 0
Flags: W
HStem: 146 80<80.393 151.607>
VStem: 76 80<150.393 221.607>
LayerCount: 3
Fore
SplineSet
76 186 m 4
 76 208 94 226 116 226 c 4
 138 226 156 208 156 186 c 4
 156 164 138 146 116 146 c 4
 94 146 76 164 76 186 c 4
EndSplineSet
Validated: 1
EndChar

StartChar: v
Encoding: 118 118 22
Width: 232
VWidth: 0
Flags: W
HStem: 146 80<80.393 151.607>
VStem: 76 80<150.393 221.607>
LayerCount: 3
Fore
SplineSet
76 186 m 4
 76 208 94 226 116 226 c 4
 138 226 156 208 156 186 c 4
 156 164 138 146 116 146 c 4
 94 146 76 164 76 186 c 4
EndSplineSet
Validated: 1
EndChar

StartChar: w
Encoding: 119 119 23
Width: 232
VWidth: 0
Flags: W
HStem: 146 80<80.393 151.607>
VStem: 76 80<150.393 221.607>
LayerCount: 3
Fore
SplineSet
76 186 m 0
 76 208 94 226 116 226 c 0
 138 226 156 208 156 186 c 0
 156 164 138 146 116 146 c 0
 94 146 76 164 76 186 c 0
EndSplineSet
Validated: 1
EndChar

StartChar: x
Encoding: 120 120 24
Width: 232
VWidth: 0
Flags: W
HStem: 146 80<80.393 151.607>
VStem: 76 80<150.393 221.607>
LayerCount: 3
Fore
SplineSet
76 186 m 4
 76 208 94 226 116 226 c 4
 138 226 156 208 156 186 c 4
 156 164 138 146 116 146 c 4
 94 146 76 164 76 186 c 4
EndSplineSet
Validated: 1
EndChar

StartChar: y
Encoding: 121 121 25
Width: 232
VWidth: 0
Flags: W
HStem: 146 80<80.393 151.607>
VStem: 76 80<150.393 221.607>
LayerCount: 3
Fore
SplineSet
76 186 m 4
 76 208 94 226 116 226 c 4
 138 226 156 208 156 186 c 4
 156 164 138 146 116 146 c 4
 94 146 76 164 76 186 c 4
EndSplineSet
Validated: 1
EndChar

StartChar: z
Encoding: 122 122 26
Width: 232
VWidth: 0
Flags: W
HStem: 146 80<80.393 151.607>
VStem: 76 80<150.393 221.607>
LayerCount: 3
Fore
SplineSet
76 186 m 4
 76 208 94 226 116 226 c 4
 138 226 156 208 156 186 c 4
 156 164 138 146 116 146 c 4
 94 146 76 164 76 186 c 4
EndSplineSet
Validated: 1
EndChar

